<mxfile host="app.diagrams.net" modified="2021-06-27T17:59:37.551Z" agent="5.0 (Windows NT 10.0; Win64; x64) AppleWebKit/537.36 (KHTML, like Gecko) Chrome/91.0.4472.124 Safari/537.36" etag="WcZU8sixWTPsUrR9nr7v" version="14.8.1" type="github">
  <diagram id="vgLFYBLZVlIYCjRSiDnm" name="Page-1">
    <mxGraphModel dx="868" dy="450" grid="1" gridSize="10" guides="1" tooltips="1" connect="1" arrows="1" fold="1" page="1" pageScale="1" pageWidth="827" pageHeight="1169" math="0" shadow="0">
      <root>
        <mxCell id="0" />
        <mxCell id="1" parent="0" />
        <mxCell id="i-Shd6xAGOVRH2Jw1J8m-1" value="" style="rounded=0;whiteSpace=wrap;html=1;" vertex="1" parent="1">
          <mxGeometry x="320" y="40" width="200" height="90" as="geometry" />
        </mxCell>
        <mxCell id="i-Shd6xAGOVRH2Jw1J8m-2" value="&quot;interface&quot;" style="text;html=1;strokeColor=none;fillColor=none;align=center;verticalAlign=middle;whiteSpace=wrap;rounded=0;" vertex="1" parent="1">
          <mxGeometry x="320" y="40" width="200" height="20" as="geometry" />
        </mxCell>
        <mxCell id="i-Shd6xAGOVRH2Jw1J8m-3" value="AbstractCarFactory" style="text;html=1;strokeColor=none;fillColor=none;align=center;verticalAlign=middle;whiteSpace=wrap;rounded=0;" vertex="1" parent="1">
          <mxGeometry x="320" y="60" width="200" height="20" as="geometry" />
        </mxCell>
        <mxCell id="i-Shd6xAGOVRH2Jw1J8m-5" value="&amp;nbsp;+ createPremium():Premium" style="text;html=1;strokeColor=none;fillColor=none;align=left;verticalAlign=middle;whiteSpace=wrap;rounded=0;" vertex="1" parent="1">
          <mxGeometry x="320" y="90" width="200" height="20" as="geometry" />
        </mxCell>
        <mxCell id="i-Shd6xAGOVRH2Jw1J8m-7" value="" style="text;html=1;fillColor=none;align=center;verticalAlign=middle;whiteSpace=wrap;rounded=0;strokeColor=#000000;" vertex="1" parent="1">
          <mxGeometry x="320" y="80" width="200" height="10" as="geometry" />
        </mxCell>
        <mxCell id="i-Shd6xAGOVRH2Jw1J8m-8" value="&amp;nbsp;+ createSport():Sport" style="text;html=1;strokeColor=none;fillColor=none;align=left;verticalAlign=middle;whiteSpace=wrap;rounded=0;" vertex="1" parent="1">
          <mxGeometry x="320" y="110" width="200" height="20" as="geometry" />
        </mxCell>
        <mxCell id="i-Shd6xAGOVRH2Jw1J8m-11" value="" style="rounded=0;whiteSpace=wrap;html=1;strokeColor=#000000;" vertex="1" parent="1">
          <mxGeometry x="80" y="160" width="200" height="60" as="geometry" />
        </mxCell>
        <mxCell id="i-Shd6xAGOVRH2Jw1J8m-12" value="&lt;b&gt;ToyotaFactory&lt;/b&gt;" style="text;html=1;strokeColor=none;fillColor=none;align=center;verticalAlign=middle;whiteSpace=wrap;rounded=0;" vertex="1" parent="1">
          <mxGeometry x="120" y="170" width="120" height="20" as="geometry" />
        </mxCell>
        <mxCell id="i-Shd6xAGOVRH2Jw1J8m-13" value="" style="text;html=1;fillColor=none;align=center;verticalAlign=middle;whiteSpace=wrap;rounded=0;strokeColor=#000000;" vertex="1" parent="1">
          <mxGeometry x="80" y="200" width="200" height="10" as="geometry" />
        </mxCell>
        <mxCell id="i-Shd6xAGOVRH2Jw1J8m-14" value="" style="text;html=1;fillColor=none;align=center;verticalAlign=middle;whiteSpace=wrap;rounded=0;strokeColor=#000000;" vertex="1" parent="1">
          <mxGeometry x="80" y="210" width="200" height="10" as="geometry" />
        </mxCell>
        <mxCell id="i-Shd6xAGOVRH2Jw1J8m-16" value="" style="rounded=0;whiteSpace=wrap;html=1;strokeColor=#000000;" vertex="1" parent="1">
          <mxGeometry x="560" y="160" width="200" height="60" as="geometry" />
        </mxCell>
        <mxCell id="i-Shd6xAGOVRH2Jw1J8m-17" value="&lt;b&gt;LexusFactory&lt;/b&gt;" style="text;html=1;strokeColor=none;fillColor=none;align=center;verticalAlign=middle;whiteSpace=wrap;rounded=0;" vertex="1" parent="1">
          <mxGeometry x="600" y="170" width="120" height="20" as="geometry" />
        </mxCell>
        <mxCell id="i-Shd6xAGOVRH2Jw1J8m-18" value="" style="text;html=1;fillColor=none;align=center;verticalAlign=middle;whiteSpace=wrap;rounded=0;strokeColor=#000000;" vertex="1" parent="1">
          <mxGeometry x="560" y="200" width="200" height="10" as="geometry" />
        </mxCell>
        <mxCell id="i-Shd6xAGOVRH2Jw1J8m-19" value="" style="text;html=1;fillColor=none;align=center;verticalAlign=middle;whiteSpace=wrap;rounded=0;strokeColor=#000000;" vertex="1" parent="1">
          <mxGeometry x="560" y="210" width="200" height="10" as="geometry" />
        </mxCell>
        <mxCell id="i-Shd6xAGOVRH2Jw1J8m-38" value="&lt;p style=&quot;margin: 0px ; margin-top: 4px ; text-align: center&quot;&gt;&lt;b&gt;ToyotaPremium&lt;/b&gt;&lt;/p&gt;&lt;hr size=&quot;1&quot;&gt;&lt;p style=&quot;margin: 0px ; margin-left: 4px&quot;&gt;+ wheelPos(): string = &#39;right&#39;&lt;/p&gt;&lt;hr size=&quot;1&quot;&gt;&lt;p style=&quot;margin: 0px ; margin-left: 4px&quot;&gt;&lt;br&gt;&lt;/p&gt;" style="verticalAlign=top;align=left;overflow=fill;fontSize=12;fontFamily=Helvetica;html=1;strokeColor=#000000;" vertex="1" parent="1">
          <mxGeometry x="80" y="280" width="200" height="60" as="geometry" />
        </mxCell>
        <mxCell id="i-Shd6xAGOVRH2Jw1J8m-39" value="&lt;p style=&quot;margin: 0px ; margin-top: 4px ; text-align: center&quot;&gt;&lt;b&gt;ToyotaSport&lt;/b&gt;&lt;/p&gt;&lt;hr size=&quot;1&quot;&gt;&lt;p style=&quot;margin: 0px ; margin-left: 4px&quot;&gt;+ wheelPos(): string = &#39;right&#39;&lt;/p&gt;&lt;hr size=&quot;1&quot;&gt;&lt;p style=&quot;margin: 0px ; margin-left: 4px&quot;&gt;&lt;br&gt;&lt;/p&gt;" style="verticalAlign=top;align=left;overflow=fill;fontSize=12;fontFamily=Helvetica;html=1;strokeColor=#000000;" vertex="1" parent="1">
          <mxGeometry x="80" y="380" width="200" height="60" as="geometry" />
        </mxCell>
        <mxCell id="i-Shd6xAGOVRH2Jw1J8m-40" value="&lt;p style=&quot;margin: 0px ; margin-top: 4px ; text-align: center&quot;&gt;&lt;b&gt;LexusPremium&lt;/b&gt;&lt;/p&gt;&lt;hr size=&quot;1&quot;&gt;&lt;p style=&quot;margin: 0px ; margin-left: 4px&quot;&gt;+ wheelPos(): string = &#39;left&#39;&lt;/p&gt;&lt;hr size=&quot;1&quot;&gt;&lt;p style=&quot;margin: 0px ; margin-left: 4px&quot;&gt;&lt;br&gt;&lt;/p&gt;" style="verticalAlign=top;align=left;overflow=fill;fontSize=12;fontFamily=Helvetica;html=1;strokeColor=#000000;" vertex="1" parent="1">
          <mxGeometry x="560" y="280" width="200" height="60" as="geometry" />
        </mxCell>
        <mxCell id="i-Shd6xAGOVRH2Jw1J8m-41" value="&lt;p style=&quot;margin: 0px ; margin-top: 4px ; text-align: center&quot;&gt;&lt;b&gt;LexusPremium&lt;/b&gt;&lt;/p&gt;&lt;hr size=&quot;1&quot;&gt;&lt;p style=&quot;margin: 0px ; margin-left: 4px&quot;&gt;+ wheelPos(): string = &#39;left&#39;&lt;/p&gt;&lt;hr size=&quot;1&quot;&gt;&lt;p style=&quot;margin: 0px ; margin-left: 4px&quot;&gt;&lt;br&gt;&lt;/p&gt;" style="verticalAlign=top;align=left;overflow=fill;fontSize=12;fontFamily=Helvetica;html=1;strokeColor=#000000;" vertex="1" parent="1">
          <mxGeometry x="560" y="380" width="200" height="60" as="geometry" />
        </mxCell>
        <mxCell id="i-Shd6xAGOVRH2Jw1J8m-42" value="" style="rounded=0;whiteSpace=wrap;html=1;" vertex="1" parent="1">
          <mxGeometry x="320" y="250" width="200" height="90" as="geometry" />
        </mxCell>
        <mxCell id="i-Shd6xAGOVRH2Jw1J8m-43" value="Abstract" style="text;html=1;strokeColor=none;fillColor=none;align=center;verticalAlign=middle;whiteSpace=wrap;rounded=0;" vertex="1" parent="1">
          <mxGeometry x="320" y="250" width="200" height="20" as="geometry" />
        </mxCell>
        <mxCell id="i-Shd6xAGOVRH2Jw1J8m-44" value="Premium" style="text;html=1;strokeColor=none;fillColor=none;align=center;verticalAlign=middle;whiteSpace=wrap;rounded=0;" vertex="1" parent="1">
          <mxGeometry x="320" y="270" width="200" height="20" as="geometry" />
        </mxCell>
        <mxCell id="i-Shd6xAGOVRH2Jw1J8m-45" value="&amp;nbsp;+ type(): string = &#39;premium&#39;" style="text;html=1;strokeColor=none;fillColor=none;align=left;verticalAlign=middle;whiteSpace=wrap;rounded=0;" vertex="1" parent="1">
          <mxGeometry x="320" y="300" width="200" height="20" as="geometry" />
        </mxCell>
        <mxCell id="i-Shd6xAGOVRH2Jw1J8m-46" value="" style="text;html=1;fillColor=none;align=center;verticalAlign=middle;whiteSpace=wrap;rounded=0;strokeColor=#000000;" vertex="1" parent="1">
          <mxGeometry x="320" y="290" width="200" height="10" as="geometry" />
        </mxCell>
        <mxCell id="i-Shd6xAGOVRH2Jw1J8m-47" value="&amp;nbsp;+ wheelPos(): string" style="text;html=1;strokeColor=none;fillColor=none;align=left;verticalAlign=middle;whiteSpace=wrap;rounded=0;" vertex="1" parent="1">
          <mxGeometry x="320" y="320" width="200" height="20" as="geometry" />
        </mxCell>
        <mxCell id="i-Shd6xAGOVRH2Jw1J8m-54" value="" style="rounded=0;whiteSpace=wrap;html=1;" vertex="1" parent="1">
          <mxGeometry x="320" y="390" width="200" height="90" as="geometry" />
        </mxCell>
        <mxCell id="i-Shd6xAGOVRH2Jw1J8m-55" value="Abstract" style="text;html=1;strokeColor=none;fillColor=none;align=center;verticalAlign=middle;whiteSpace=wrap;rounded=0;" vertex="1" parent="1">
          <mxGeometry x="320" y="390" width="200" height="20" as="geometry" />
        </mxCell>
        <mxCell id="i-Shd6xAGOVRH2Jw1J8m-56" value="Sport" style="text;html=1;strokeColor=none;fillColor=none;align=center;verticalAlign=middle;whiteSpace=wrap;rounded=0;" vertex="1" parent="1">
          <mxGeometry x="320" y="410" width="200" height="20" as="geometry" />
        </mxCell>
        <mxCell id="i-Shd6xAGOVRH2Jw1J8m-57" value="&amp;nbsp;+ type(): string = &#39;sport&#39;" style="text;html=1;strokeColor=none;fillColor=none;align=left;verticalAlign=middle;whiteSpace=wrap;rounded=0;" vertex="1" parent="1">
          <mxGeometry x="320" y="440" width="200" height="20" as="geometry" />
        </mxCell>
        <mxCell id="i-Shd6xAGOVRH2Jw1J8m-58" value="" style="text;html=1;fillColor=none;align=center;verticalAlign=middle;whiteSpace=wrap;rounded=0;strokeColor=#000000;" vertex="1" parent="1">
          <mxGeometry x="320" y="430" width="200" height="10" as="geometry" />
        </mxCell>
        <mxCell id="i-Shd6xAGOVRH2Jw1J8m-59" value="&amp;nbsp;+ wheelPos(): string" style="text;html=1;strokeColor=none;fillColor=none;align=left;verticalAlign=middle;whiteSpace=wrap;rounded=0;" vertex="1" parent="1">
          <mxGeometry x="320" y="460" width="200" height="20" as="geometry" />
        </mxCell>
      </root>
    </mxGraphModel>
  </diagram>
</mxfile>
